<svg width="288" height="83" viewBox="0 0 288 83" fill="none" xmlns="http://www.w3.org/2000/svg">
<path d="M29.2 82.7C21 82.7 14.2667 80.7667 9 76.9C3.73333 72.9667 0.9 67.3667 0.5 60.1H21.4C21.6 62.5667 22.3333 64.3667 23.6 65.5C24.8667 66.6333 26.5 67.2 28.5 67.2C30.3 67.2 31.7667 66.7667 32.9 65.9C34.1 64.9667 34.7 63.7 34.7 62.1C34.7 60.0333 33.7333 58.4333 31.8 57.3C29.8667 56.1667 26.7333 54.9 22.4 53.5C17.8 51.9667 14.0667 50.5 11.2 49.1C8.4 47.6333 5.93333 45.5333 3.8 42.8C1.73333 40 0.7 36.3667 0.7 31.9C0.7 27.3667 1.83333 23.5 4.1 20.3C6.36667 17.0333 9.5 14.5667 13.5 12.9C17.5 11.2333 22.0333 10.4 27.1 10.4C35.3 10.4 41.8333 12.3333 46.7 16.2C51.6333 20 54.2667 25.3667 54.6 32.3H33.3C33.2333 30.1667 32.5667 28.5667 31.3 27.5C30.1 26.4333 28.5333 25.9 26.6 25.9C25.1333 25.9 23.9333 26.3333 23 27.2C22.0667 28.0667 21.6 29.3 21.6 30.9C21.6 32.2333 22.1 33.4 23.1 34.4C24.1667 35.3333 25.4667 36.1667 27 36.9C28.5333 37.5667 30.8 38.4333 33.8 39.5C38.2667 41.0333 41.9333 42.5667 44.8 44.1C47.7333 45.5667 50.2333 47.6667 52.3 50.4C54.4333 53.0667 55.5 56.4667 55.5 60.6C55.5 64.8 54.4333 68.5667 52.3 71.9C50.2333 75.2333 47.2 77.8667 43.2 79.8C39.2667 81.7333 34.6 82.7 29.2 82.7ZM61.4117 53.9C61.4117 48.1 62.4451 43.0333 64.5117 38.7C66.6451 34.3667 69.5117 31.0333 73.1117 28.7C76.7784 26.3667 80.8451 25.2 85.3117 25.2C89.1784 25.2 92.5117 25.9667 95.3117 27.5C98.1117 29.0333 100.278 31.1 101.812 33.7V25.9H121.412V82H101.812V74.2C100.278 76.8 98.0784 78.8667 95.2117 80.4C92.4117 81.9333 89.1117 82.7 85.3117 82.7C80.8451 82.7 76.7784 81.5333 73.1117 79.2C69.5117 76.8667 66.6451 73.5333 64.5117 69.2C62.4451 64.8 61.4117 59.7 61.4117 53.9ZM101.812 53.9C101.812 50.3 100.812 47.4667 98.8117 45.4C96.8784 43.3333 94.4784 42.3 91.6117 42.3C88.6784 42.3 86.2451 43.3333 84.3117 45.4C82.3784 47.4 81.4117 50.2333 81.4117 53.9C81.4117 57.5 82.3784 60.3667 84.3117 62.5C86.2451 64.5667 88.6784 65.6 91.6117 65.6C94.4784 65.6 96.8784 64.5667 98.8117 62.5C100.812 60.4333 101.812 57.5667 101.812 53.9ZM167.68 82L152.18 59V82H132.58V8H152.18V47.9L167.68 25.9H191.18L169.08 54.1L191.58 82H167.68ZM234.227 25.4C240.627 25.4 245.693 27.5667 249.427 31.9C253.227 36.1667 255.127 41.9667 255.127 49.3V82H235.527V51.9C235.527 48.7 234.693 46.2 233.027 44.4C231.36 42.5333 229.127 41.6 226.327 41.6C223.393 41.6 221.093 42.5333 219.427 44.4C217.76 46.2 216.927 48.7 216.927 51.9V82H197.327V8H216.927V33.9C218.66 31.3667 220.993 29.3333 223.927 27.8C226.927 26.2 230.36 25.4 234.227 25.4ZM275.781 20.7C272.315 20.7 269.515 19.7667 267.381 17.9C265.315 15.9667 264.281 13.5667 264.281 10.7C264.281 7.76666 265.315 5.33333 267.381 3.4C269.515 1.46666 272.315 0.499994 275.781 0.499994C279.181 0.499994 281.915 1.46666 283.981 3.4C286.115 5.33333 287.181 7.76666 287.181 10.7C287.181 13.5667 286.115 15.9667 283.981 17.9C281.915 19.7667 279.181 20.7 275.781 20.7ZM285.481 25.9V82H265.881V25.9H285.481Z" fill="#03045E"/>
</svg>
